Coordinates
version=1
nRows=9
nColumns=24
inDegrees=yes

Units are S.I. units (second, meters, Newtons, ...)
Angles are in degrees.

endheader
time	pelvis_tilt	pelvis_list	pelvis_rotation	pelvis_tx	pelvis_ty	pelvis_tz	hip_flexion_r	hip_adduction_r	hip_rotation_r	knee_angle_r	ankle_angle_r	subtalar_angle_r	mtp_angle_r	hip_flexion_l	hip_adduction_l	hip_rotation_l	knee_angle_l	ankle_angle_l	subtalar_angle_l	mtp_angle_l	lumbar_extension	lumbar_bending	lumbar_rotation
      1.10833333	     -1.96867933	     -4.95199631	     -3.56678189	     -0.13556167	      1.06150740	      0.34627880	    -11.52863014	      9.86810494	      3.38942797	     -6.36338249	      3.95212066	    -10.10131194	      5.15480158	     21.42867605	     -2.96490539	     -8.40651405	      6.08501701	      1.40144499	      0.24241420	      1.75932343	      3.89080679	      9.75393408	      2.62297680
      1.11250000	     -1.97975440	     -4.97070963	     -3.57342572	     -0.12985848	      1.06106399	      0.34617994	    -11.63781467	      9.86228046	      3.42747291	     -6.77154651	      3.91999922	    -10.10683716	      5.15574148	     21.39995134	     -2.92459818	     -8.31611590	      5.94194388	      1.40766179	      0.29825843	      1.74932328	      3.93013538	      9.73917862	      2.62547609
      1.11666667	     -1.97954322	     -4.98794985	     -3.57213459	     -0.12414500	      1.06065211	      0.34609985	    -11.74596591	      9.85869351	      3.46279285	     -7.20344297	      3.88010629	    -10.10900341	      5.15734983	     21.36087983	     -2.88675788	     -8.17978983	      5.73625841	      1.41597312	      0.35843771	      1.73914391	      3.96934300	      9.72248202	      2.63029789
      1.12083333	     -1.97399459	     -5.00255256	     -3.56462072	     -0.11839634	      1.06026955	      0.34603076	    -11.84603605	      9.85339234	      3.48321947	     -7.66172797	      3.82777532	    -10.10695550	      5.15975563	     21.31331452	     -2.85015000	     -8.00451259	      5.48103672	      1.41877381	      0.41199284	      1.72879683	      4.00318061	      9.70105581	      2.63737353
      1.12500000	     -1.96611384	     -5.01772579	     -3.54853110	     -0.11261740	      1.05990570	      0.34596284	    -11.93449077	      9.85102771	      3.48800559	     -8.14762821	      3.76162881	    -10.10046032	      5.16286705	     21.26200127	     -2.81441731	     -7.80221396	      5.18237083	      1.40656703	      0.44640106	      1.71893942	      4.03538686	      9.67488653	      2.64640186
      1.12916667	     -1.96856368	     -5.06070120	     -3.36700575	     -0.10687725	      1.05944449	      0.34562302	    -11.99112443	      9.90887312	      3.29174813	     -8.63051764	      3.57300871	    -10.03375747	      5.17873827	     21.24660634	     -2.75296048	     -7.22795150	      4.83223160	      1.35633146	      0.39820839	      1.67725163	      3.95314931	      9.70287099	      2.64945122
      1.13333333	     -1.93765599	     -5.04992140	     -3.38749566	     -0.10099886	      1.05919873	      0.34563416	    -12.07451614	      9.86994000	      3.29611077	     -9.18214287	      3.51344593	    -10.02980786	      5.18315352	     21.14776296	     -2.71002620	     -7.08622954	      4.48632459	      1.30687992	      0.35803031	      1.66867994	      4.04093911	      9.66753295	      2.65649909
      1.13750000	     -1.91186195	     -5.04540715	     -3.40748793	     -0.09513379	      1.05896526	      0.34561194	    -12.12750424	      9.83450984	      3.26823941	     -9.77798143	      3.42014076	    -10.00967787	      5.18866088	     21.04744601	     -2.67536010	     -6.88381051	      4.12949994	      1.21810318	      0.30962939	      1.65988310	      4.09625498	      9.61220612	      2.66706891
      1.14166667	     -1.89418398	     -5.03244570	     -3.13233094	     -0.08914562	      1.05859243	      0.34482649	    -12.14182327	      9.81332356	      2.71864319	    -10.35773502	      3.09572172	     -9.63235762	      5.28054020	     20.92730932	     -2.49912033	     -5.74568049	      3.86944853	      0.59512068	     -0.99605475	      1.54239405	      4.15443559	      9.71324332	      2.60663089
